<svg width="117" height="29" viewBox="0 0 117 29" fill="none" xmlns="http://www.w3.org/2000/svg">
<path d="M10.3378 25.36C3.31781 25.36 0.581813 21.76 0.581813 15.748V15.028H6.30581V16C6.30581 19.132 6.77381 20.14 10.1578 20.14C13.5058 20.14 13.9738 19.132 13.9738 16V0.879999H19.7338V15.532C19.7338 21.688 16.9618 25.36 10.3378 25.36ZM31.3303 25.36C24.2383 25.36 20.9623 22.48 20.9623 17.152V16.684H26.2543V17.044C26.2543 19.708 27.2263 20.464 31.5823 20.464C34.6423 20.464 35.3983 19.852 35.3983 18.232C35.3983 16.612 35.0383 16.036 31.6543 15.46L27.4063 14.704C22.7983 13.912 20.8543 11.572 20.8543 7.828C20.8543 4.156 23.5543 0.52 30.4663 0.52C37.3423 0.52 40.2223 4.084 40.2223 8.872V9.16H34.8943V8.764C34.8943 6.244 33.8503 5.416 30.2863 5.416C27.1903 5.416 26.2183 6.1 26.2183 7.612C26.2183 9.16 26.8663 9.52 29.6743 10.06L33.9583 10.888C39.0343 11.86 40.7623 14.524 40.7623 18.052C40.7623 21.904 38.1703 25.36 31.3303 25.36Z" fill="#916CE6"/>
<path d="M42.6874 25.168C42.1434 25.168 41.6794 24.984 41.2954 24.616C40.9114 24.232 40.7194 23.752 40.7194 23.176C40.7194 22.568 40.9114 22.088 41.2954 21.736C41.6794 21.368 42.1434 21.184 42.6874 21.184C43.2314 21.184 43.6954 21.368 44.0794 21.736C44.4634 22.088 44.6554 22.568 44.6554 23.176C44.6554 23.752 44.4634 24.232 44.0794 24.616C43.6954 24.984 43.2314 25.168 42.6874 25.168Z" fill="#616161"/>
<path d="M54.798 25.24C53.486 25.24 52.278 25.024 51.174 24.592C50.07 24.16 49.11 23.56 48.294 22.792C47.478 22.008 46.846 21.096 46.398 20.056C45.95 19 45.726 17.848 45.726 16.6C45.726 15.352 45.95 14.208 46.398 13.168C46.846 12.112 47.478 11.2 48.294 10.432C49.11 9.648 50.07 9.04 51.174 8.608C52.278 8.176 53.478 7.96 54.774 7.96C56.086 7.96 57.286 8.176 58.374 8.608C59.478 9.04 60.438 9.64 61.254 10.408C62.07 11.176 62.702 12.088 63.15 13.144C63.598 14.2 63.822 15.352 63.822 16.6C63.822 17.848 63.598 19 63.15 20.056C62.702 21.112 62.07 22.024 61.254 22.792C60.438 23.56 59.478 24.16 58.374 24.592C57.286 25.024 56.094 25.24 54.798 25.24ZM60.27 28.672C59.678 28.672 59.102 28.6 58.542 28.456C57.998 28.328 57.454 28.104 56.91 27.784C56.382 27.48 55.83 27.072 55.254 26.56C54.678 26.064 54.046 25.448 53.358 24.712L56.67 23.848C57.118 24.44 57.542 24.912 57.942 25.264C58.358 25.632 58.758 25.896 59.142 26.056C59.526 26.216 59.926 26.296 60.342 26.296C61.446 26.296 62.406 25.848 63.222 24.952L64.662 26.68C63.542 28.008 62.078 28.672 60.27 28.672ZM54.774 22.504C55.622 22.504 56.406 22.36 57.126 22.072C57.846 21.784 58.47 21.376 58.998 20.848C59.526 20.304 59.934 19.672 60.222 18.952C60.526 18.232 60.678 17.448 60.678 16.6C60.678 15.736 60.526 14.952 60.222 14.248C59.934 13.528 59.526 12.904 58.998 12.376C58.47 11.832 57.846 11.416 57.126 11.128C56.406 10.84 55.622 10.696 54.774 10.696C53.926 10.696 53.142 10.84 52.422 11.128C51.702 11.416 51.078 11.832 50.55 12.376C50.022 12.904 49.606 13.528 49.302 14.248C49.014 14.952 48.87 15.736 48.87 16.6C48.87 17.448 49.014 18.232 49.302 18.952C49.606 19.672 50.022 20.304 50.55 20.848C51.078 21.376 51.702 21.784 52.422 22.072C53.142 22.36 53.926 22.504 54.774 22.504ZM71.7851 25.168C70.6971 25.168 69.7371 24.968 68.9051 24.568C68.0731 24.152 67.4251 23.528 66.9611 22.696C66.4971 21.848 66.2651 20.784 66.2651 19.504V12.184H69.2651V19.096C69.2651 20.248 69.5211 21.112 70.0331 21.688C70.5611 22.248 71.3051 22.528 72.2651 22.528C72.9691 22.528 73.5771 22.384 74.0891 22.096C74.6171 21.808 75.0251 21.376 75.3131 20.8C75.6171 20.224 75.7691 19.512 75.7691 18.664V12.184H78.7691V25H75.9131V21.544L76.4171 22.6C75.9851 23.432 75.3531 24.072 74.5211 24.52C73.6891 24.952 72.7771 25.168 71.7851 25.168ZM88.2411 25.168C86.8171 25.168 85.5691 24.888 84.4971 24.328C83.4411 23.752 82.6171 22.968 82.0251 21.976C81.4491 20.984 81.1611 19.856 81.1611 18.592C81.1611 17.312 81.4411 16.184 82.0011 15.208C82.5771 14.216 83.3611 13.44 84.3531 12.88C85.3611 12.32 86.5051 12.04 87.7851 12.04C89.0331 12.04 90.1451 12.312 91.1211 12.856C92.0971 13.4 92.8651 14.168 93.4251 15.16C93.9851 16.152 94.2651 17.32 94.2651 18.664C94.2651 18.792 94.2571 18.936 94.2411 19.096C94.2411 19.256 94.2331 19.408 94.2171 19.552H83.5371V17.56H92.6331L91.4571 18.184C91.4731 17.448 91.3211 16.8 91.0011 16.24C90.6811 15.68 90.2411 15.24 89.6811 14.92C89.1371 14.6 88.5051 14.44 87.7851 14.44C87.0491 14.44 86.4011 14.6 85.8411 14.92C85.2971 15.24 84.8651 15.688 84.5451 16.264C84.2411 16.824 84.0891 17.488 84.0891 18.256V18.736C84.0891 19.504 84.2651 20.184 84.6171 20.776C84.9691 21.368 85.4651 21.824 86.1051 22.144C86.7451 22.464 87.4811 22.624 88.3131 22.624C89.0331 22.624 89.6811 22.512 90.2571 22.288C90.8331 22.064 91.3451 21.712 91.7931 21.232L93.4011 23.08C92.8251 23.752 92.0971 24.272 91.2171 24.64C90.3531 24.992 89.3611 25.168 88.2411 25.168ZM100.627 25.168C99.5548 25.168 98.5228 25.032 97.5308 24.76C96.5548 24.472 95.7788 24.128 95.2028 23.728L96.3548 21.448C96.9308 21.816 97.6188 22.12 98.4188 22.36C99.2188 22.6 100.019 22.72 100.819 22.72C101.763 22.72 102.443 22.592 102.859 22.336C103.291 22.08 103.507 21.736 103.507 21.304C103.507 20.952 103.363 20.688 103.075 20.512C102.787 20.32 102.411 20.176 101.947 20.08C101.483 19.984 100.963 19.896 100.387 19.816C99.8268 19.736 99.2588 19.632 98.6828 19.504C98.1228 19.36 97.6108 19.16 97.1468 18.904C96.6828 18.632 96.3068 18.272 96.0188 17.824C95.7308 17.376 95.5868 16.784 95.5868 16.048C95.5868 15.232 95.8188 14.528 96.2828 13.936C96.7468 13.328 97.3948 12.864 98.2268 12.544C99.0748 12.208 100.075 12.04 101.227 12.04C102.091 12.04 102.963 12.136 103.843 12.328C104.723 12.52 105.451 12.792 106.027 13.144L104.875 15.424C104.267 15.056 103.651 14.808 103.027 14.68C102.419 14.536 101.811 14.464 101.203 14.464C100.291 14.464 99.6108 14.6 99.1628 14.872C98.7308 15.144 98.5148 15.488 98.5148 15.904C98.5148 16.288 98.6588 16.576 98.9468 16.768C99.2348 16.96 99.6108 17.112 100.075 17.224C100.539 17.336 101.051 17.432 101.611 17.512C102.187 17.576 102.755 17.68 103.315 17.824C103.875 17.968 104.387 18.168 104.851 18.424C105.331 18.664 105.715 19.008 106.003 19.456C106.291 19.904 106.435 20.488 106.435 21.208C106.435 22.008 106.195 22.704 105.715 23.296C105.251 23.888 104.587 24.352 103.723 24.688C102.859 25.008 101.827 25.168 100.627 25.168ZM113.362 25.168C111.954 25.168 110.866 24.808 110.098 24.088C109.33 23.352 108.946 22.272 108.946 20.848V9.352H111.946V20.776C111.946 21.384 112.098 21.856 112.402 22.192C112.722 22.528 113.162 22.696 113.722 22.696C114.394 22.696 114.954 22.52 115.402 22.168L116.242 24.304C115.89 24.592 115.458 24.808 114.946 24.952C114.434 25.096 113.906 25.168 113.362 25.168ZM106.834 14.68V12.28H115.378V14.68H106.834Z" fill="#BEBEBE"/>
</svg>
